<svg id="Layer_1" data-name="Layer 1" xmlns="http://www.w3.org/2000/svg" viewBox="0 0 2048 2048"><defs><style>.cls-1{fill:#171212;opacity:0;}.cls-2{fill:#1eb754;}</style></defs><title>timetabled-icon</title><path class="cls-1" d="M1024,.33q509,0,1018-.33c4.92,0,6,3,6,16.13q-.21,1007.87,0,2015.74c0,13.17-1.11,16.13-6,16.13Q1024,2047.49,6,2048c-4.92,0-6-3-6-16.13Q.21,1024,0,16.13C0,3,1.11,0,6,0Q515,.54,1024,.33Z" transform="translate(0 0)"/><path class="cls-2" d="M1011.81,391.21C670.66,394.81,389,684.62,391.18,1029.78c2.19,345.37,292.88,630.76,638.68,627,347.49-3.77,630.53-292.14,626.94-638.76C1653.16,667.11,1365.42,387.47,1011.81,391.21Zm296.45,821.34c-23.18,38.57-60.61,30.7-92.2,10.73-72.11-45.6-142.66-93.67-213.53-141.21-32.72-21.94-39.67-56.2-40.22-92.26-.7-46-.17-92-.22-138-.05-37.24-.38-74.49,0-111.72.55-48.42-4.35-109.74,63.17-107.85,65.74,1.84,60.12,63.23,60.5,111.42.52,65.71,1.84,131.49-.53,197.12-1.33,36.83,9.75,60.92,42.53,80.35,52.61,31.19,102.3,67.31,153.14,101.48C1314.46,1145.16,1329.68,1176.89,1308.26,1212.55Z" transform="translate(0 0)"/></svg>